# xmcd
#
# Track frame offsets:
#	150
#	12044
#	25610
#	35012
#	53680
#	64140
#	79395
#	90754
#	102654
#	116792
#	135177
#	149920
#	162873
#	176867
#	193223
#	203593
#	224322
#	238437
#	255005
#	269843
#	285278
#	297988
#	308757
#	319740
#
# Disc length: 4448 seconds
#
# Revision: 0
# Processed by: cddbd v1.5.2PL0 Copyright (c) Steve Scherf et al.
# Submitted via: audiograbber 1.83.01
#
DISCID=62115e18
DTITLE=Western Heart - Western Heart 086
DYEAR=2008
DGENRE=Country
TTITLE0=I´ll Walk Before I Crawl  - Erin Hay
TTITLE1=I Really Don´t Want To Know  - David Cline
TTITLE2=Ahes Of Love - Jim and Linda Davis
TTITLE3=Child Of Eight  - Tim Chesney
TTITLE4=Dogs Don´t Care If Your Ugly  - Joni Compretta
TTITLE5=You Just Don´t Get It - Cheryl K Warner
TTITLE6=Knee Slapping Country Music  - Richard Draime
TTITLE7=My Little Country Girl  - Doug Jones
TTITLE8=Did You Think To Pray  - Cindy Standage
TTITLE9=Thought Of Losing You - Mike Anderson
TTITLE10=Late Night Lady Dj  - Phillip Clarkson
TTITLE11=I´m Loving What Your Loving Does  - Heather Cowles and Bruce Stephens
TTITLE12=The Way Love Goes  - Doug Hamilton
TTITLE13=Live Every Day  - Bad Bob
TTITLE14=They Don´t Make Em Like My Daddy Anymore - Lisa Michaud
TTITLE15=They Don´t Make Em Like My Daddy Anymore - Jim and Linda Davis
TTITLE16=The New Square In Front Of  - Ambrogio Gaigher
TTITLE17=Trading My Sorrows  - Jo-el Curtis
TTITLE18=A New Man - Jerry Curtis
TTITLE19=The Ledership Of Of God  - Richard Draime
TTITLE20=I´m A Survivor  - Judy Weldon
TTITLE21=Hony Don´t Miss Me  - Ernie Ashworth
TTITLE22=Nina  - Hal Willis
TTITLE23=I Never Thought We Would Live To See The Day  - Perley Curtis
EXTD=
EXTT0=
EXTT1=
EXTT2=
EXTT3=
EXTT4=
EXTT5=
EXTT6=
EXTT7=
EXTT8=
EXTT9=
EXTT10=
EXTT11=
EXTT12=
EXTT13=
EXTT14=
EXTT15=
EXTT16=
EXTT17=
EXTT18=
EXTT19=
EXTT20=
EXTT21=
EXTT22=
EXTT23=
PLAYORDER=
